<svg width="30" height="31" viewBox="0 0 30 31" fill="none" xmlns="http://www.w3.org/2000/svg">
<path d="M21.25 25.5C21.25 24.8096 21.8096 24.25 22.5 24.25C23.1904 24.25 23.75 24.8096 23.75 25.5C23.75 26.1904 23.1904 26.75 22.5 26.75C21.8096 26.75 21.25 26.1904 21.25 25.5Z" stroke="black" stroke-width="2.5" stroke-linecap="round" stroke-linejoin="round"/>
<path d="M8.75 25.5C8.75 24.8096 9.30964 24.25 10 24.25C10.6904 24.25 11.25 24.8096 11.25 25.5C11.25 26.1904 10.6904 26.75 10 26.75C9.30964 26.75 8.75 26.1904 8.75 25.5Z" stroke="black" stroke-width="2.5" stroke-linecap="round" stroke-linejoin="round"/>
<path d="M3.75 4.25H4.70965C5.31248 4.25 5.82943 4.68025 5.93887 5.27307L8.75 20.5" stroke="black" stroke-width="2.5" stroke-linecap="round" stroke-linejoin="round"/>
<path d="M6.875 8H24.6787C25.4825 8 26.0774 8.7478 25.8967 9.53107L23.589 19.5311C23.4581 20.0982 22.9531 20.5 22.371 20.5H8.75" stroke="black" stroke-width="2.5" stroke-linecap="round" stroke-linejoin="round"/>
</svg>
